<?xml version="1.0" standalone="no" ?>
<!DOCTYPE svg PUBLIC "-//W3C//DTD SVG 1.0//EN" "http://www.w3.org/TR/2001/REC-SVG-20010904/DTD/svg10.dtd">
<svg style="vertical-align: -0.339ex" xmlns="http://www.w3.org/2000/svg" width="3.129ex" height="1.959ex" role="img" focusable="false" viewBox="0 -716 1383.1 866">
<style>
  * {
    fill: ;
    background-color: transparent;
  }
</style><g stroke="currentColor" fill="currentColor" stroke-width="0" transform="scale(1,-1)"><g data-mml-node="math"><g data-mml-node="msub"><g data-mml-node="mi"><path data-c="1D434" d="M208 74Q208 50 254 46Q272 46 272 35Q272 34 270 22Q267 8 264 4T251 0Q249 0 239 0T205 1T141 2Q70 2 50 0H42Q35 7 35 11Q37 38 48 46H62Q132 49 164 96Q170 102 345 401T523 704Q530 716 547 716H555H572Q578 707 578 706L606 383Q634 60 636 57Q641 46 701 46Q726 46 726 36Q726 34 723 22Q720 7 718 4T704 0Q701 0 690 0T651 1T578 2Q484 2 455 0H443Q437 6 437 9T439 27Q443 40 445 43L449 46H469Q523 49 533 63L521 213H283L249 155Q208 86 208 74ZM516 260Q516 271 504 416T490 562L463 519Q447 492 400 412L310 260L413 259Q516 259 516 260Z"></path></g><g data-mml-node="TeXAtom" transform="translate(783,-150) scale(0.707)" data-mjx-texclass="ORD"><g data-mml-node="mo"><path data-c="B1" d="M56 320T56 333T70 353H369V502Q369 651 371 655Q376 666 388 666Q402 666 405 654T409 596V500V353H707Q722 345 722 333Q722 320 707 313H409V40H707Q722 32 722 20T707 0H70Q56 7 56 20T70 40H369V313H70Q56 320 56 333Z"></path></g></g></g></g></g></svg>