<?xml version="1.0" standalone="no" ?>
<!DOCTYPE svg PUBLIC "-//W3C//DTD SVG 1.0//EN" "http://www.w3.org/TR/2001/REC-SVG-20010904/DTD/svg10.dtd">
<svg style="vertical-align: -0.09ex" xmlns="http://www.w3.org/2000/svg" width="5.644ex" height="1.679ex" role="img" focusable="false" viewBox="0 -702 2494.6 742">
<style>
  * {
    fill: ;
    background-color: transparent;
  }
</style><g stroke="currentColor" fill="currentColor" stroke-width="0" transform="scale(1,-1)"><g data-mml-node="math"><g data-mml-node="mi"><path data-c="1D464" d="M580 385Q580 406 599 424T641 443Q659 443 674 425T690 368Q690 339 671 253Q656 197 644 161T609 80T554 12T482 -11Q438 -11 404 5T355 48Q354 47 352 44Q311 -11 252 -11Q226 -11 202 -5T155 14T118 53T104 116Q104 170 138 262T173 379Q173 380 173 381Q173 390 173 393T169 400T158 404H154Q131 404 112 385T82 344T65 302T57 280Q55 278 41 278H27Q21 284 21 287Q21 293 29 315T52 366T96 418T161 441Q204 441 227 416T250 358Q250 340 217 250T184 111Q184 65 205 46T258 26Q301 26 334 87L339 96V119Q339 122 339 128T340 136T341 143T342 152T345 165T348 182T354 206T362 238T373 281Q402 395 406 404Q419 431 449 431Q468 431 475 421T483 402Q483 389 454 274T422 142Q420 131 420 107V100Q420 85 423 71T442 42T487 26Q558 26 600 148Q609 171 620 213T632 273Q632 306 619 325T593 357T580 385Z"></path></g><g data-mml-node="mo" transform="translate(993.8,0)"><path data-c="2208" d="M84 250Q84 372 166 450T360 539Q361 539 377 539T419 540T469 540H568Q583 532 583 520Q583 511 570 501L466 500Q355 499 329 494Q280 482 242 458T183 409T147 354T129 306T124 272V270H568Q583 262 583 250T568 230H124V228Q124 207 134 177T167 112T231 48T328 7Q355 1 466 0H570Q583 -10 583 -20Q583 -32 568 -40H471Q464 -40 446 -40T417 -41Q262 -41 172 45Q84 127 84 250Z"></path></g><g data-mml-node="TeXAtom" data-mjx-texclass="ORD" transform="translate(1938.6,0)"><g data-mml-node="mi"><path data-c="1D54A" d="M54 238Q72 238 72 212Q72 174 106 121Q113 110 132 90T166 59Q221 23 264 23Q315 23 348 41Q368 50 384 79Q393 102 393 129Q393 181 356 219T221 299Q120 343 74 390T28 501Q28 561 55 610Q98 682 212 699Q214 699 231 700T261 701Q309 698 340 687T408 675Q431 678 445 690T465 702Q474 702 481 690V497L477 490Q464 481 450 490Q446 500 446 501Q446 546 386 606T260 666Q215 666 182 639T148 565Q148 528 186 496T319 428Q352 414 370 405T418 379T468 338T506 284Q528 239 528 191Q528 102 456 46T266 -10Q211 -10 176 2T110 15Q86 9 73 -1T53 -12Q44 -12 37 -1V112V182Q37 214 40 226T54 238ZM446 619Q446 648 444 648Q439 646 435 644Q425 644 415 639H404L417 624Q435 606 439 601L446 592V619ZM124 619L128 635Q126 635 108 617Q64 576 64 502Q64 489 65 479T76 449T102 414T150 376T228 335Q335 291 381 245T427 128Q427 94 419 75L415 61Q421 61 448 88Q490 127 490 190Q490 233 475 264Q456 299 430 321Q402 349 369 367T287 404T204 441Q138 481 119 526Q113 544 113 565Q113 596 124 619ZM75 43Q76 43 90 46T110 50H119L106 64L74 101Q72 101 72 72T75 43Z"></path></g></g></g></g></svg>