<svg aria-labelledby="chart-title-container" aria-describedby="chart-desc-container" aria-roledescription="pie" role="graphics-document document" style="max-width: 676.015625px;" viewBox="0 0 676.015625 450" xmlns="http://www.w3.org/2000/svg" width="100%" id="container"><title id="chart-title-container">Work Life</title><desc id="chart-desc-container">Work Life</desc><style>#container{font-family:"trebuchet ms",verdana,arial,sans-serif;font-size:16px;fill:#333;}#container .error-icon{fill:hsl(220.5882352941, 100%, 98.3333333333%);}#container .error-text{fill:rgb(8.5000000002, 5.7500000001, 0);stroke:rgb(8.5000000002, 5.7500000001, 0);}#container .edge-thickness-normal{stroke-width:1px;}#container .edge-thickness-thick{stroke-width:3.5px;}#container .edge-pattern-solid{stroke-dasharray:0;}#container .edge-thickness-invisible{stroke-width:0;fill:none;}#container .edge-pattern-dashed{stroke-dasharray:3;}#container .edge-pattern-dotted{stroke-dasharray:2;}#container .marker{fill:#0b0b0b;stroke:#0b0b0b;}#container .marker.cross{stroke:#0b0b0b;}#container svg{font-family:"trebuchet ms",verdana,arial,sans-serif;font-size:16px;}#container p{margin:0;}#container .pieCircle{stroke:black;stroke-width:2px;opacity:0.7;}#container .pieOuterCircle{stroke:black;stroke-width:2px;fill:none;}#container .pieTitleText{text-anchor:middle;font-size:25px;fill:#333;font-family:"trebuchet ms",verdana,arial,sans-serif;}#container .slice{font-family:"trebuchet ms",verdana,arial,sans-serif;fill:#333;font-size:17px;}#container .legend text{fill:#333;font-family:"trebuchet ms",verdana,arial,sans-serif;font-size:17px;}#container :root{--mermaid-font-family:"trebuchet ms",verdana,arial,sans-serif;}</style><g></g><g transform="translate(225,225)"><circle class="pieOuterCircle" r="186" cy="0" cx="0"></circle><path class="pieCircle" fill="#e8dff5" d="M0,-185A185,185,0,0,1,175.945,57.168L0,0Z"></path><path class="pieCircle" fill="#fce1e4" d="M175.945,57.168A185,185,0,0,1,-57.168,175.945L0,0Z"></path><path class="pieCircle" fill="#fcf4dd" d="M-57.168,175.945A185,185,0,0,1,-185,0L0,0Z"></path><path class="pieCircle" fill="#ddedea" d="M-185,0A185,185,0,0,1,-108.74,-149.668L0,0Z"></path><path class="pieCircle" fill="#daeaf6" d="M-108.74,-149.668A185,185,0,0,1,0,-185L0,0Z"></path><text style="text-anchor: middle;" class="slice" transform="translate(112.25110796952396,-81.55520375558064)">30%</text><text style="text-anchor: middle;" class="slice" transform="translate(62.99118183886206,123.62715523113606)">25%</text><text style="text-anchor: middle;" class="slice" transform="translate(-112.25110796952394,81.55520375558066)">20%</text><text style="text-anchor: middle;" class="slice" transform="translate(-123.62715523113604,-62.991181838862104)">15%</text><text style="text-anchor: middle;" class="slice" transform="translate(-42.87610796952397,-131.95909163595255)">10%</text><text class="pieTitleText" y="-200" x="0">Work-Life Percentages</text><g transform="translate(216,-55)" class="legend"><rect style="fill: rgb(232, 223, 245); stroke: rgb(232, 223, 245);" height="18" width="18"></rect><text y="14" x="22">Family / Relationship</text></g><g transform="translate(216,-33)" class="legend"><rect style="fill: rgb(252, 225, 228); stroke: rgb(252, 225, 228);" height="18" width="18"></rect><text y="14" x="22">Work</text></g><g transform="translate(216,-11)" class="legend"><rect style="fill: rgb(252, 244, 221); stroke: rgb(252, 244, 221);" height="18" width="18"></rect><text y="14" x="22">Religious</text></g><g transform="translate(216,11)" class="legend"><rect style="fill: rgb(221, 237, 234); stroke: rgb(221, 237, 234);" height="18" width="18"></rect><text y="14" x="22">Hobby</text></g><g transform="translate(216,33)" class="legend"><rect style="fill: rgb(218, 234, 246); stroke: rgb(218, 234, 246);" height="18" width="18"></rect><text y="14" x="22">Chores</text></g></g></svg>