<?xml version="1.0" standalone="no" ?>
<!DOCTYPE svg PUBLIC "-//W3C//DTD SVG 1.0//EN" "http://www.w3.org/TR/2001/REC-SVG-20010904/DTD/svg10.dtd">
<svg style="vertical-align: -0.566ex" xmlns="http://www.w3.org/2000/svg" width="21.647ex" height="2.262ex" role="img" focusable="false" viewBox="0 -750 9568.1 1000">
<style>
  * {
    fill: ;
    background-color: transparent;
  }
</style><g stroke="currentColor" fill="currentColor" stroke-width="0" transform="scale(1,-1)"><g data-mml-node="math"><g data-mml-node="msub"><g data-mml-node="TeXAtom" data-mjx-texclass="ORD"><g data-mml-node="mi"><path data-c="45" d="M144 470Q144 556 240 630T451 705Q564 705 564 637Q564 611 540 573Q529 559 505 547T464 534Q448 534 448 545Q448 552 455 562Q463 577 463 591Q463 600 462 604T456 616T436 627T400 635Q396 635 390 635T380 636Q291 636 258 568Q245 544 245 516Q245 463 290 438T391 410Q415 410 415 398Q415 392 407 380T376 356T326 341Q288 340 260 327Q218 311 187 276T143 208T130 151Q130 113 156 88T211 55T268 47Q349 47 403 125Q415 144 439 157T483 171Q499 171 499 160Q499 148 475 120T413 59T315 3T197 -22Q124 -22 77 14T30 105Q30 126 39 154T66 216T122 288T209 354L223 362Q144 400 144 470Z"></path></g></g><g data-mml-node="mn" transform="translate(561,-150) scale(0.707)"><path data-c="30" d="M96 585Q152 666 249 666Q297 666 345 640T423 548Q460 465 460 320Q460 165 417 83Q397 41 362 16T301 -15T250 -22Q224 -22 198 -16T137 16T82 83Q39 165 39 320Q39 494 96 585ZM321 597Q291 629 250 629Q208 629 178 597Q153 571 145 525T137 333Q137 175 145 125T181 46Q209 16 250 16Q290 16 318 46Q347 76 354 130T362 333Q362 478 354 524T321 597Z"></path></g></g><g data-mml-node="mo" transform="translate(1242.3,0)"><path data-c="3D" d="M56 347Q56 360 70 367H707Q722 359 722 347Q722 336 708 328L390 327H72Q56 332 56 347ZM56 153Q56 168 72 173H708Q722 163 722 153Q722 140 707 133H70Q56 140 56 153Z"></path></g><g data-mml-node="mi" transform="translate(2298.1,0)"><path data-c="1D435" d="M231 637Q204 637 199 638T194 649Q194 676 205 682Q206 683 335 683Q594 683 608 681Q671 671 713 636T756 544Q756 480 698 429T565 360L555 357Q619 348 660 311T702 219Q702 146 630 78T453 1Q446 0 242 0Q42 0 39 2Q35 5 35 10Q35 17 37 24Q42 43 47 45Q51 46 62 46H68Q95 46 128 49Q142 52 147 61Q150 65 219 339T288 628Q288 635 231 637ZM649 544Q649 574 634 600T585 634Q578 636 493 637Q473 637 451 637T416 636H403Q388 635 384 626Q382 622 352 506Q352 503 351 500L320 374H401Q482 374 494 376Q554 386 601 434T649 544ZM595 229Q595 273 572 302T512 336Q506 337 429 337Q311 337 310 336Q310 334 293 263T258 122L240 52Q240 48 252 48T333 46Q422 46 429 47Q491 54 543 105T595 229Z"></path></g><g data-mml-node="mo" transform="translate(3057.1,0)"><path data-c="28" d="M94 250Q94 319 104 381T127 488T164 576T202 643T244 695T277 729T302 750H315H319Q333 750 333 741Q333 738 316 720T275 667T226 581T184 443T167 250T184 58T225 -81T274 -167T316 -220T333 -241Q333 -250 318 -250H315H302L274 -226Q180 -141 137 -14T94 250Z"></path></g><g data-mml-node="msub" transform="translate(3446.1,0)"><g data-mml-node="mi"><path data-c="1D467" d="M347 338Q337 338 294 349T231 360Q211 360 197 356T174 346T162 335T155 324L153 320Q150 317 138 317Q117 317 117 325Q117 330 120 339Q133 378 163 406T229 440Q241 442 246 442Q271 442 291 425T329 392T367 375Q389 375 411 408T434 441Q435 442 449 442H462Q468 436 468 434Q468 430 463 420T449 399T432 377T418 358L411 349Q368 298 275 214T160 106L148 94L163 93Q185 93 227 82T290 71Q328 71 360 90T402 140Q406 149 409 151T424 153Q443 153 443 143Q443 138 442 134Q425 72 376 31T278 -11Q252 -11 232 6T193 40T155 57Q111 57 76 -3Q70 -11 59 -11H54H41Q35 -5 35 -2Q35 13 93 84Q132 129 225 214T340 322Q352 338 347 338Z"></path></g><g data-mml-node="mn" transform="translate(498,-150) scale(0.707)"><path data-c="31" d="M213 578L200 573Q186 568 160 563T102 556H83V602H102Q149 604 189 617T245 641T273 663Q275 666 285 666Q294 666 302 660V361L303 61Q310 54 315 52T339 48T401 46H427V0H416Q395 3 257 3Q121 3 100 0H88V46H114Q136 46 152 46T177 47T193 50T201 52T207 57T213 61V578Z"></path></g></g><g data-mml-node="mo" transform="translate(4347.7,0)"><path data-c="3B" d="M78 370Q78 394 95 412T138 430Q162 430 180 414T199 371Q199 346 182 328T139 310T96 327T78 370ZM78 60Q78 85 94 103T137 121Q202 121 202 8Q202 -44 183 -94T144 -169T118 -194Q115 -194 106 -186T95 -174Q94 -171 107 -155T137 -107T160 -38Q161 -32 162 -22T165 -4T165 4Q165 5 161 4T142 0Q110 0 94 18T78 60Z"></path></g><g data-mml-node="mi" transform="translate(4792.3,0)"><path data-c="1D445" d="M230 637Q203 637 198 638T193 649Q193 676 204 682Q206 683 378 683Q550 682 564 680Q620 672 658 652T712 606T733 563T739 529Q739 484 710 445T643 385T576 351T538 338L545 333Q612 295 612 223Q612 212 607 162T602 80V71Q602 53 603 43T614 25T640 16Q668 16 686 38T712 85Q717 99 720 102T735 105Q755 105 755 93Q755 75 731 36Q693 -21 641 -21H632Q571 -21 531 4T487 82Q487 109 502 166T517 239Q517 290 474 313Q459 320 449 321T378 323H309L277 193Q244 61 244 59Q244 55 245 54T252 50T269 48T302 46H333Q339 38 339 37T336 19Q332 6 326 0H311Q275 2 180 2Q146 2 117 2T71 2T50 1Q33 1 33 10Q33 12 36 24Q41 43 46 45Q50 46 61 46H67Q94 46 127 49Q141 52 146 61Q149 65 218 339T287 628Q287 635 230 637ZM630 554Q630 586 609 608T523 636Q521 636 500 636T462 637H440Q393 637 386 627Q385 624 352 494T319 361Q319 360 388 360Q466 361 492 367Q556 377 592 426Q608 449 619 486T630 554Z"></path></g><g data-mml-node="mo" transform="translate(5551.3,0)"><path data-c="29" d="M60 749L64 750Q69 750 74 750H86L114 726Q208 641 251 514T294 250Q294 182 284 119T261 12T224 -76T186 -143T145 -194T113 -227T90 -246Q87 -249 86 -250H74Q66 -250 63 -250T58 -247T55 -238Q56 -237 66 -225Q221 -64 221 250T66 725Q56 737 55 738Q55 746 60 749Z"></path></g><g data-mml-node="mo" transform="translate(5940.3,0)"><path data-c="2C" d="M78 35T78 60T94 103T137 121Q165 121 187 96T210 8Q210 -27 201 -60T180 -117T154 -158T130 -185T117 -194Q113 -194 104 -185T95 -172Q95 -168 106 -156T131 -126T157 -76T173 -3V9L172 8Q170 7 167 6T161 3T152 1T140 0Q113 0 96 17Z"></path></g><g data-mml-node="msub" transform="translate(6385,0)"><g data-mml-node="TeXAtom" data-mjx-texclass="ORD"><g data-mml-node="mi"><path data-c="53" d="M554 512Q536 512 536 522Q536 525 539 539T542 564Q542 588 528 604Q515 616 482 625T410 635Q374 635 349 624T312 594T295 561T290 532Q290 505 303 482T342 442T378 419T409 404Q435 391 451 383T494 357T535 323T562 282T574 231Q574 133 464 56T220 -22Q138 -22 78 21T18 123Q18 184 61 227T156 274Q178 274 178 263Q178 260 177 258Q172 247 164 239T151 227T136 218L127 213L124 202Q118 186 118 163Q120 124 165 86T292 48Q374 48 423 86T473 186V193Q473 267 347 327Q268 364 239 389Q191 431 191 486Q191 547 242 600T356 679T470 705Q472 705 478 705T489 704Q551 704 596 682T642 610Q642 566 621 545Q592 516 554 512Z"></path></g></g><g data-mml-node="mn" transform="translate(639,-150) scale(0.707)"><path data-c="31" d="M213 578L200 573Q186 568 160 563T102 556H83V602H102Q149 604 189 617T245 641T273 663Q275 666 285 666Q294 666 302 660V361L303 61Q310 54 315 52T339 48T401 46H427V0H416Q395 3 257 3Q121 3 100 0H88V46H114Q136 46 152 46T177 47T193 50T201 52T207 57T213 61V578Z"></path></g></g><g data-mml-node="mo" transform="translate(7705.3,0)"><path data-c="3D" d="M56 347Q56 360 70 367H707Q722 359 722 347Q722 336 708 328L390 327H72Q56 332 56 347ZM56 153Q56 168 72 173H708Q722 163 722 153Q722 140 707 133H70Q56 140 56 153Z"></path></g><g data-mml-node="TeXAtom" data-mjx-texclass="ORD" transform="translate(8761.1,0)"><g data-mml-node="mi"><path data-c="58" d="M324 614Q291 576 250 573Q231 573 231 584Q231 589 232 592Q235 601 244 614T271 643T324 671T400 683H403Q462 683 481 610Q485 594 490 545T498 454L501 413Q504 413 551 442T648 509T705 561Q707 565 707 578Q707 610 682 614Q667 614 667 626Q667 641 695 662T755 683Q765 683 775 680T796 662T807 623Q807 596 792 572T713 499T530 376L505 361V356Q508 346 511 278T524 148T557 75Q569 69 580 69Q585 69 593 77Q624 108 660 110Q667 110 670 110T676 106T678 94Q668 59 624 30T510 0Q487 0 471 9T445 32T430 71T422 117T417 173Q416 183 416 188Q413 214 411 244T407 286T405 299Q403 299 344 263T223 182T154 122Q152 118 152 105Q152 69 180 69Q183 69 187 66T191 60L192 58V56Q192 41 163 21T105 0Q94 0 84 3T63 21T52 60Q52 77 56 90T85 131T155 191Q197 223 259 263T362 327T402 352L391 489Q391 492 390 505T387 526T384 547T379 568T372 586T361 602T348 611Q346 612 341 613T333 614H324Z"></path></g></g></g></g></svg>