<?xml version="1.0" standalone="no" ?>
<!DOCTYPE svg PUBLIC "-//W3C//DTD SVG 1.0//EN" "http://www.w3.org/TR/2001/REC-SVG-20010904/DTD/svg10.dtd">
<svg style="vertical-align: -0.566ex" xmlns="http://www.w3.org/2000/svg" width="11.284ex" height="2.262ex" role="img" focusable="false" viewBox="0 -750 4987.3 1000">
<style>
  * {
    fill: ;
    background-color: transparent;
  }
</style><g stroke="currentColor" fill="currentColor" stroke-width="0" transform="scale(1,-1)"><g data-mml-node="math"><g data-mml-node="mo"><path data-c="5B" d="M118 -250V750H255V710H158V-210H255V-250H118Z"></path></g><g data-mml-node="msub" transform="translate(278,0)"><g data-mml-node="mi"><path data-c="1D44E" d="M33 157Q33 258 109 349T280 441Q331 441 370 392Q386 422 416 422Q429 422 439 414T449 394Q449 381 412 234T374 68Q374 43 381 35T402 26Q411 27 422 35Q443 55 463 131Q469 151 473 152Q475 153 483 153H487Q506 153 506 144Q506 138 501 117T481 63T449 13Q436 0 417 -8Q409 -10 393 -10Q359 -10 336 5T306 36L300 51Q299 52 296 50Q294 48 292 46Q233 -10 172 -10Q117 -10 75 30T33 157ZM351 328Q351 334 346 350T323 385T277 405Q242 405 210 374T160 293Q131 214 119 129Q119 126 119 118T118 106Q118 61 136 44T179 26Q217 26 254 59T298 110Q300 114 325 217T351 328Z"></path></g><g data-mml-node="mn" transform="translate(562,-150) scale(0.707)"><path data-c="31" d="M213 578L200 573Q186 568 160 563T102 556H83V602H102Q149 604 189 617T245 641T273 663Q275 666 285 666Q294 666 302 660V361L303 61Q310 54 315 52T339 48T401 46H427V0H416Q395 3 257 3Q121 3 100 0H88V46H114Q136 46 152 46T177 47T193 50T201 52T207 57T213 61V578Z"></path></g></g><g data-mml-node="mo" transform="translate(1243.6,0)"><path data-c="2C" d="M78 35T78 60T94 103T137 121Q165 121 187 96T210 8Q210 -27 201 -60T180 -117T154 -158T130 -185T117 -194Q113 -194 104 -185T95 -172Q95 -168 106 -156T131 -126T157 -76T173 -3V9L172 8Q170 7 167 6T161 3T152 1T140 0Q113 0 96 17Z"></path></g><g data-mml-node="msub" transform="translate(1688.2,0)"><g data-mml-node="mi"><path data-c="1D44E" d="M33 157Q33 258 109 349T280 441Q331 441 370 392Q386 422 416 422Q429 422 439 414T449 394Q449 381 412 234T374 68Q374 43 381 35T402 26Q411 27 422 35Q443 55 463 131Q469 151 473 152Q475 153 483 153H487Q506 153 506 144Q506 138 501 117T481 63T449 13Q436 0 417 -8Q409 -10 393 -10Q359 -10 336 5T306 36L300 51Q299 52 296 50Q294 48 292 46Q233 -10 172 -10Q117 -10 75 30T33 157ZM351 328Q351 334 346 350T323 385T277 405Q242 405 210 374T160 293Q131 214 119 129Q119 126 119 118T118 106Q118 61 136 44T179 26Q217 26 254 59T298 110Q300 114 325 217T351 328Z"></path></g><g data-mml-node="mn" transform="translate(562,-150) scale(0.707)"><path data-c="32" d="M109 429Q82 429 66 447T50 491Q50 562 103 614T235 666Q326 666 387 610T449 465Q449 422 429 383T381 315T301 241Q265 210 201 149L142 93L218 92Q375 92 385 97Q392 99 409 186V189H449V186Q448 183 436 95T421 3V0H50V19V31Q50 38 56 46T86 81Q115 113 136 137Q145 147 170 174T204 211T233 244T261 278T284 308T305 340T320 369T333 401T340 431T343 464Q343 527 309 573T212 619Q179 619 154 602T119 569T109 550Q109 549 114 549Q132 549 151 535T170 489Q170 464 154 447T109 429Z"></path></g></g><g data-mml-node="mo" transform="translate(2653.8,0)"><path data-c="5D" d="M22 710V750H159V-250H22V-210H119V710H22Z"></path></g><g data-mml-node="mo" transform="translate(3209.6,0)"><path data-c="2282" d="M84 250Q84 372 166 450T360 539Q361 539 370 539T395 539T430 540T475 540T524 540H679Q694 532 694 520Q694 511 681 501L522 500H470H441Q366 500 338 496T266 472Q244 461 224 446T179 404T139 337T124 250V245Q124 157 185 89Q244 25 328 7Q348 2 366 2T522 0H681Q694 -10 694 -20Q694 -32 679 -40H526Q510 -40 480 -40T434 -41Q350 -41 289 -25T172 45Q84 127 84 250Z"></path></g><g data-mml-node="TeXAtom" data-mjx-texclass="ORD" transform="translate(4265.3,0)"><g data-mml-node="mi"><path data-c="211D" d="M17 665Q17 672 28 683H221Q415 681 439 677Q461 673 481 667T516 654T544 639T566 623T584 607T597 592T607 578T614 565T618 554L621 548Q626 530 626 497Q626 447 613 419Q578 348 473 326L455 321Q462 310 473 292T517 226T578 141T637 72T686 35Q705 30 705 16Q705 7 693 -1H510Q503 6 404 159L306 310H268V183Q270 67 271 59Q274 42 291 38Q295 37 319 35Q344 35 353 28Q362 17 353 3L346 -1H28Q16 5 16 16Q16 35 55 35Q96 38 101 52Q106 60 106 341T101 632Q95 645 55 648Q17 648 17 665ZM241 35Q238 42 237 45T235 78T233 163T233 337V621L237 635L244 648H133Q136 641 137 638T139 603T141 517T141 341Q141 131 140 89T134 37Q133 36 133 35H241ZM457 496Q457 540 449 570T425 615T400 634T377 643Q374 643 339 648Q300 648 281 635Q271 628 270 610T268 481V346H284Q327 346 375 352Q421 364 439 392T457 496ZM492 537T492 496T488 427T478 389T469 371T464 361Q464 360 465 360Q469 360 497 370Q593 400 593 495Q593 592 477 630L457 637L461 626Q474 611 488 561Q492 537 492 496ZM464 243Q411 317 410 317Q404 317 401 315Q384 315 370 312H346L526 35H619L606 50Q553 109 464 243Z"></path></g></g></g></g></svg>